<?xml version="1.0" encoding="utf-8"?>
<!-- Generator: Adobe Illustrator 15.0.2, SVG Export Plug-In . SVG Version: 6.00 Build 0)  -->
<!DOCTYPE svg PUBLIC "-//W3C//DTD SVG 1.1//EN" "http://www.w3.org/Graphics/SVG/1.1/DTD/svg11.dtd">
<svg version="1.1" id="Layer_1" xmlns="http://www.w3.org/2000/svg" xmlns:xlink="http://www.w3.org/1999/xlink" x="0px" y="0px"
	 width="97.394px" height="160.927px" viewBox="0 0 97.394 160.927" enable-background="new 0 0 97.394 160.927"
	 xml:space="preserve">
<path fill="#FDB913" d="M103.574-575.667H-83.741c-10.958,0-19.842,8.884-19.842,19.842v187.315
	c0,10.959,8.884,19.843,19.842,19.843h187.315c10.959,0,19.843-8.884,19.843-19.843v-187.315
	C123.417-566.783,114.533-575.667,103.574-575.667z"/>
<path fill="#63C29D" d="M340.588-575.667H153.272c-10.958,0-19.842,8.884-19.842,19.842v187.315
	c0,10.959,8.884,19.843,19.842,19.843h187.315c10.959,0,19.842-8.884,19.842-19.843v-187.315
	C360.43-566.783,351.547-575.667,340.588-575.667z"/>
<path fill="#FFFFFF" d="M27.706-387.702c-1.735,0-22.299,0-30.776,0c-2.224,0-2.371,2.176-1.616,3.15
	c2.734,3.526,6.461,5.943,9.487,5.943c5.33,0,8.063,0,14.515,0c3.676,0,7.186-2.588,9.726-6.393
	C29.604-385.845,29.895-387.702,27.706-387.702z"/>
<g>
	<path fill="#FFFFFF" d="M-7.811-409.331c2.287,0.022,29.404,0.008,39.707,0.002c2.438-0.002,4.021-0.982,4.363-4.071
		c0.335-3.03,0.481-3.177,0.68-5.087c0.188-1.86-0.823-3.629-3.57-3.599c-4.708,0.051-36.033-0.171-41.913,0.13
		c-3.074,0.159-3.048,0.967-2.927,3.152c0.134,2.405,0.321,2.844,0.529,6.618C-10.89-411.253-10.637-409.358-7.811-409.331z"/>
	<path fill="#FFFFFF" d="M-5.657-399.575h36.197c0,0,3.563-0.031,3.886-3.677c0.328-3.647-3.305-3.223-3.305-3.223H-5.725
		c0,0-4.059-0.613-4.07,3.129C-9.805-399.604-5.657-399.575-5.657-399.575z"/>
	<path fill="#FFFFFF" d="M-4.613-390.321h33.714c0,0,3.317-0.031,3.62-3.677c0.303-3.647-3.08-3.226-3.08-3.226H-4.672
		c0,0-3.785-0.609-3.795,3.132C-8.477-390.347-4.613-390.321-4.613-390.321z"/>
	<g>
		<path fill="#FFFFFF" d="M18.216-426.731c-0.037-1.445-0.086-3.191-0.138-5.066c-0.184-6.481-0.11-14.549-0.11-18.87
			c0-5.952,4.646-16.846,7.916-24.058c0.914-2.011,1.704-3.749,2.134-4.837c0.563-1.421,2.058-5.201,1.047-6.694
			c-0.599-0.876-2.351-1.359-4.94-1.359H0.957c-2.104,0-3.623,0.559-4.275,1.568c-0.697,1.082-0.536,2.877,0.45,5.063
			c0.95,2.101,2.036,4.367,3.148,6.69c4.077,8.512,8.292,17.311,8.292,22.831c0,1.648-0.015,4.205-0.032,7.123
			c-0.032,5.354-0.081,13.374-0.025,17.729c0.015,1.078,0.686,2.47,2.029,2.47c1.842,0.006,3.703,0.012,5.52,0.019
			C17.311-424.121,18.244-425.672,18.216-426.731z"/>
		<path fill="#FFFFFF" d="M12.432-539.534c-26.894,0-48.696,21.802-48.696,48.697c0,10.391,3.255,20.021,8.799,27.929
			c1.369,1.95,7.842,9.718,8.075,10.827c4.893,23.174,8.012,27.918,16.288,27.918c0.726,0,1.979,0.002,3.946,0.002
			c1.966,0,2.788-1.741,2.774-3.04c-0.039-3.476-0.021-9.041,0.029-17.167c0.017-2.907,0.032-5.455,0.032-7.094
			c0-4.408-4.149-13.073-7.812-20.716c-1.129-2.356-2.231-4.659-3.195-6.793c-2.172-4.806-1.252-7.946-0.102-9.729
			c1.586-2.455,4.565-3.807,8.387-3.807h23.168c4.443,0,7.382,1.145,8.984,3.502c2.172,3.194,1.023,7.292-0.54,11.243
			c-0.478,1.203-1.249,2.903-2.228,5.06c-2.911,6.413-7.48,17.143-7.48,22.036c0,4.251-0.073,12.28,0.107,18.731
			c0.057,1.962,0.106,3.727,0.143,5.172c0.028,1.086,0.625,2.672,2.345,2.672c1.681,0.005,3.124,0.005,4.211,0.005
			c13.637,0,10.829-12.829,14.888-29.507c0.472-1.94,7.696-9.061,9.209-11.483c4.668-7.471,7.364-16.302,7.364-25.762
			C61.128-517.732,39.326-539.534,12.432-539.534z"/>
	</g>
</g>
<g>
	<g>
		<path fill="#FFFFFF" d="M209.936-464.648c-1.719-4.576-0.64-9.074,12.229-11.624c12.873-2.549,43.284-7.996,48.114-9.347
			c3.859-1.08,6.648-1.808,8.199-2.645c0.545-0.294,1.66-0.647,2.223,0.147c0.607,0.86,1.301,2.311,1.531,4.601
			c0.443,4.403-1.33,10.427-19.084,13.669c-17.752,3.244-36.938,6.345-41.598,7.271C216.89-461.648,210.97-461.887,209.936-464.648z
			"/>
		<path fill="#FFFFFF" d="M209.893-481.843c-2.964-3.867-2.178-10.59,10.692-13.138c12.872-2.55,45.563-8.866,50.444-10.024
			c3.543-0.84,5.617-1.598,7.053-2.541c0.547-0.357,1.863-0.78,2.406-0.013c0.775,1.091,1.723,2.957,1.744,5.563
			c0.051,6.182-1.33,10.424-19.084,13.667c-17.752,3.245-39.5,7.645-44.161,8.572C214.33-478.831,211.667-479.525,209.893-481.843z"
			/>
		<path fill="#FFFFFF" d="M210.338-503.235c-1.433-4.373-0.075-9.576,11.979-11.458c12.964-2.024,41.166-6.465,46.049-7.623
			c3.207-0.76,4.889-2.963,5.475-4.712c0.307-0.914,1.08-1.789,2.271-0.985c1.795,1.206,4.039,3.513,4.039,7.522
			c0,6.901,0.752,10.2-17.002,13.445c-17.752,3.243-39.144,6.151-43.803,7.081C214.687-499.04,211.245-500.461,210.338-503.235z"/>
		<path fill="#FFFFFF" d="M271.361-530.857c-0.723,5.924-10.344,6.018-15.088,6.622c-4.43,0.563-16.447,2.212-20.523,3.182
			c-1.521,0.361-11.118,1.703-12.026,1.954c-4.646,0.796-7.914-3.151-6.887-6.868c1.424-5.169,17.042-7.045,24.961-8.302
			c7.921-1.256,2.237-0.273,14.623-2.251C268.811-538.498,271.961-535.768,271.361-530.857z"/>
		<path fill="#FFFFFF" d="M255.355-459.884c-3.41,0.006-6.439-4.721,0.662-5.843c16.027-2.532,15.332-2.448,18.611-3.707
			c1.879-0.725,2.967-1.492,3.594-2.118c0.783-0.78,1.428-1.015,2.104-0.329c1.143,1.165,2.574,3.351,2.016,6.7
			c-0.885,5.33-7.061,5.31-14.607,5.316C248.836-459.865,265.35-459.899,255.355-459.884z"/>
		<path fill="#FFFFFF" d="M229.136-426.573c-8.307,0-20.348-1.113-20.504-24.265c-0.008-1.543-0.898-6.098,4.127-6.098
			c6.672,0,20.43-0.085,34.858,0.054c15.084,0.147,22.336,0.383,27.717,0.383c5.379-0.236,5.99,1.006,5.898,4.138
			c-0.227,7.765-2.893,25.868-16.578,25.868C258.721-426.492,238.112-426.573,229.136-426.573z"/>
		<path fill="#FFFFFF" d="M224.414-411.687c2.292,0.022,29.506,0.009,39.848,0.002c2.451-0.002,4.037-0.984,4.381-4.086
			c0.334-3.04,0.484-3.187,0.678-5.105c0.191-1.866-0.824-3.64-3.58-3.61c-4.725,0.048-36.161-0.172-42.063,0.128
			c-3.085,0.158-3.06,0.972-2.939,3.165c0.132,2.413,0.321,2.855,0.528,6.643C221.319-413.616,221.577-411.713,224.414-411.687z"/>
		<path fill="#FFFFFF" d="M226.57-402.396h36.333c0,0,3.574-0.03,3.902-3.671c0.326-3.64-3.322-3.216-3.322-3.216h-36.977
			c0,0-4.076-0.613-4.086,3.122C222.41-402.424,226.57-402.396,226.57-402.396z"/>
	</g>
	<path fill="#FFFFFF" d="M227.62-393.948h33.837c0,0,3.328-0.03,3.635-3.672c0.303-3.639-3.092-3.216-3.092-3.216h-34.44
		c0,0-3.796-0.611-3.807,3.124C223.743-393.978,227.62-393.948,227.62-393.948z"/>
	<path fill="#FFFFFF" d="M260.055-391.199c-1.74,0-22.378,0-30.885,0c-2.231,0-2.379,2.187-1.621,3.165
		c2.742,3.536,6.483,5.963,9.518,5.963c5.352,0,8.093,0,14.57,0c3.686,0,7.211-2.601,9.76-6.418
		C261.963-389.337,262.254-391.199,260.055-391.199z"/>
</g>
<path fill="#BFD730" d="M577.453-338.736H390.139c-10.959,0-19.842,8.884-19.842,19.843v187.314
	c0,10.959,8.883,19.842,19.842,19.842h187.314c10.959,0,19.844-8.883,19.844-19.842v-187.314
	C597.297-329.853,588.412-338.736,577.453-338.736z"/>
<path fill="#44C8F5" d="M340.588-338.736H153.272c-10.958,0-19.842,8.884-19.842,19.843v187.314
	c0,10.959,8.884,19.842,19.842,19.842h187.315c10.959,0,19.842-8.883,19.842-19.842v-187.314
	C360.43-329.853,351.547-338.736,340.588-338.736z"/>
<g>
	<path fill="#FFFFFF" d="M229.136-185.644c-8.307,0-20.348-1.111-20.504-24.264c-0.001-0.199-0.017-10.449-0.033-10.733
		c-0.106-1.913-0.215-5.364,4.16-5.364c6.672,0,57.194-0.037,62.575-0.037c5.379-0.236,5.99,2.091,5.898,5.222
		c-0.008,0.294-0.021,9.992-0.037,10.313c-0.406,8.186-3.373,24.945-16.541,24.945C258.721-185.562,238.112-185.644,229.136-185.644
		z"/>
	<path fill="#FFFFFF" d="M224.414-170.757c2.292,0.021,29.506,0.008,39.848,0.002c2.451-0.002,4.037-0.984,4.381-4.086
		c0.334-3.041,0.484-3.188,0.678-5.105c0.191-1.865-0.824-3.641-3.58-3.609c-4.725,0.047-36.161-0.174-42.063,0.127
		c-3.085,0.158-3.06,0.973-2.939,3.166c0.132,2.412,0.321,2.854,0.528,6.643C221.319-172.687,221.577-170.784,224.414-170.757z"/>
	<path fill="#FFFFFF" d="M226.57-161.466h36.333c0,0,3.574-0.031,3.902-3.672c0.326-3.639-3.322-3.215-3.322-3.215h-36.977
		c0,0-4.076-0.613-4.086,3.121C222.41-161.495,226.57-161.466,226.57-161.466z"/>
	<path fill="#FFFFFF" d="M227.62-153.019h33.837c0,0,3.328-0.029,3.635-3.672c0.303-3.639-3.092-3.215-3.092-3.215h-34.44
		c0,0-3.796-0.611-3.807,3.123C223.743-153.048,227.62-153.019,227.62-153.019z"/>
	<path fill="#FFFFFF" d="M260.055-150.269c-1.74,0-22.378,0-30.885,0c-2.231,0-2.379,2.186-1.621,3.164
		c2.742,3.537,6.483,5.963,9.518,5.963c5.352,0,8.093,0,14.57,0c3.686,0,7.211-2.6,9.76-6.418
		C261.963-148.407,262.254-150.269,260.055-150.269z"/>
	<path fill="#FFFFFF" d="M256.357-229.685c-2.793,0-4.462-0.002-6.768-0.002s-3.231-1.774-3.231-2.899s0.009-68.668,0.009-68.668
		c0-0.848-0.689-1.537-1.537-1.537c-0.815,0-1.53,0.788-1.53,1.266c0,0-0.007,67.953-0.007,68.979c0,1.917-1.662,2.829-2.877,2.829
		c-3.119,0-6.457-0.001-7.139-0.001c-2.034,0-2.984-1.629-2.984-2.851s0.007-68.957,0.007-68.957c0-7.733,6.654-14.266,14.53-14.266
		c8.016,0,14.537,6.521,14.537,14.537c0,0-0.009,66.755-0.009,68.547S257.544-229.685,256.357-229.685z"/>
	<path fill="#FFFFFF" d="M275.301-232.486c0-2.255,0-67.028,0-67.028c0-3.59-2.91-6.5-6.5-6.5s-6.5,2.91-6.5,6.5
		c0,0,0,65.389,0,66.811s0.975,3.028,2.932,3.028s4.559,0,7.396,0C273.635-229.676,275.301-230.231,275.301-232.486z"/>
	<path fill="#FFFFFF" d="M227.223-233.023c0-1.066,0-66.491,0-66.491c0-3.59-2.91-6.5-6.5-6.5s-6.5,2.91-6.5,6.5
		c0,0,0,66.241,0,66.853c0,1.445,0.859,2.986,2.664,2.986c0.917,0,4.675,0,7.67,0C225.562-229.676,227.223-230.493,227.223-233.023z
		"/>
</g>
<g>
	<path fill="#FFFFFF" d="M469.266-158.968c-2.195,0-8.787-0.531-8.787,5.429c0,5.959,0,8.089,0,11.067
		c0,2.979,1.465,6.171,5.311,6.171c3.266,0,12.123,0.2,14.719-0.01c2.611,0.21,11.447,0.008,14.707,0.008
		c3.846,0,5.309-3.191,5.309-6.17c0-2.979,0-5.108,0-11.068c0-5.958-6.59-5.427-8.785-5.427s-5.127,0-11.717,0l0,0
		C474.131-158.968,471.348-158.968,469.266-158.968z"/>
	<path fill="#FFFFFF" d="M514.053-301.596h-34.523l0,0h-30.355c0,0-6.303-0.426-4.801,7.662c0.387,2.1,8.703,16.462,15.008,26.677
		s12.041,8.355,19.244,8.355c3.604,0,4.955,0,5.404,0v-0.002c0.381,0,0.791,0,1.236,0c7.207,0,12.273,1.86,18.578-8.354
		c6.303-10.216,14.619-24.577,15.01-26.677C520.355-302.022,514.053-301.596,514.053-301.596z"/>
	<path fill="#FFFFFF" d="M443.535-309.361c0,3.855-0.484,5.463,4.658,5.463c5.145,0,62.191,0,65.244,0s5.143,0.163,5.143-2.569
		c0-2.734,0.482-5.304-3.697-5.304c-4.178,0-68.295,0-68.295,0S443.535-311.932,443.535-309.361z"/>
	<path fill="#FFFFFF" d="M497.594-164.578c0-3.857,0.482-5.465-4.658-5.465c-5.143,0-21.576,0-24.629,0
		c-3.055,0-5.143-0.162-5.143,2.571c0,2.731-0.484,5.304,3.695,5.304c4.178,0,27.682,0,27.682,0S497.594-162.008,497.594-164.578z"
		/>
	<path fill="#FFFFFF" d="M497.594-175.502c0-3.855,0.482-5.463-4.658-5.463c-5.143,0-21.576,0-24.629,0
		c-3.055,0-5.143-0.162-5.143,2.57s-0.484,5.303,3.695,5.303c4.178,0,27.682,0,27.682,0S497.594-172.93,497.594-175.502z"/>
	<path fill="#FFFFFF" d="M497.594-250.746c0-3.855,0.482-5.464-4.658-5.464c-5.143,0-21.576,0-24.629,0
		c-3.055,0-5.143-0.161-5.143,2.57c0,2.733-0.484,5.304,3.695,5.304c4.178,0,27.682,0,27.682,0S497.594-248.175,497.594-250.746z"/>
	<path fill="#FFFFFF" d="M472.297-245.76c-5.334,0-8.887-0.744-8.887,8.196c0,8.938,0,37.229,0,45.742
		c0,8.514,1.279,8.088,9.723,8.088c2.303,0,8.602,0,9.387,0v-0.002c0.303,0,0.594,0,0.936,0c12.178,0,14.664,2.106,14.664-6.407
		s0-36.714,0-45.652c0-8.939-3.553-9.965-8.887-9.965c-5.332,0-9.775,0-9.775,0l0,0C477.66-245.76,475.113-245.76,472.297-245.76z
		 M484.707-231.955c0,2.239-1.814,4.055-4.055,4.055s-4.057-1.815-4.057-4.055c0-2.241,1.816-4.056,4.057-4.056
		S484.707-234.196,484.707-231.955z"/>
</g>
<path fill="#B37AB4" d="M577.453-575.666H390.139c-10.959,0-19.842,8.884-19.842,19.842v187.315
	c0,10.959,8.883,19.842,19.842,19.842h187.314c10.959,0,19.844-8.883,19.844-19.842v-187.315
	C597.297-566.782,588.412-575.666,577.453-575.666z"/>
<path fill="#F4858E" d="M103.531-338.736H-83.784c-10.958,0-19.842,8.884-19.842,19.843v187.314
	c0,10.959,8.884,19.842,19.842,19.842h187.315c10.959,0,19.843-8.883,19.843-19.842v-187.314
	C123.374-329.853,114.49-338.736,103.531-338.736z"/>
<g>
	<path fill="#FFFFFF" d="M454.986-395.272c-3.277,1.986-7.895,5.874-9.633,8.794c-0.902,1.512-0.832,3.852-0.791,4.444
		c0.303,4.478,1.797,8.711,5.098,8.711c3.172,0,83.906-0.003,87.07-0.003c3.209,0,4.711-4.002,5.07-8.341
		c0.061-0.714,0.045-3.264-0.74-4.688c-1.738-3.158-7.086-7.14-10.59-9.104c-1.504-0.842-3.703-1.351-6.555-1.351l0,0
		c-5.043,0-50.486,0-62.59,0C459.695-396.809,457.008-396.579,454.986-395.272z"/>
	<path fill="#FFFFFF" d="M423.777-508.75l24.613,23.05l0,0l21.645,20.268c0,0,4.211,4.513,8.539-2.258
		c1.127-1.754,4.787-17.548,7.111-29.041c2.326-11.493-3.008-13.997-8.141-18.808c-2.57-2.406-3.535-3.308-3.854-3.608l-0.004,0.002
		c-0.271-0.257-0.562-0.529-0.881-0.826c-5.137-4.811-7.508-9.521-18.822-6.448c-11.316,3.075-26.836,7.763-28.516,8.999
		C418.996-512.654,423.777-508.75,423.777-508.75z"/>
	<path fill="#FFFFFF" d="M468.871-456.129c2.574-2.75,3.992-3.574,0.328-7.006c-3.67-3.435-44.346-41.523-46.521-43.562
		c-2.178-2.039-3.561-3.551-5.383-1.602c-1.826,1.949-3.885,3.459-0.906,6.25c2.98,2.791,48.697,45.599,48.697,45.599
		S467.156-454.296,468.871-456.129z"/>
	<path fill="#FFFFFF" d="M488.031-548.534c-0.396,0.423-19.066,17.482-19.375,17.82c-1.393,1.513-1.73,2.409,0.793,4.774
		c3.09,2.895,12.965,12.139,14.799,13.857c1.836,1.718,3.002,2.99,4.537,1.349c0.18-0.193,15.816-19.741,15.994-19.926
		c1.346-1.39,2.438-2.625,0.223-4.7c-2.512-2.351-13.779-12.904-13.779-12.904S489.479-550.08,488.031-548.534z"/>
	<path fill="#FFFFFF" d="M522.203-463.998h-12.48c-0.627,0-1.135,0.507-1.135,1.134v63.524c0,0.626,0.508,1.135,1.135,1.135h12.48
		c0.627,0,1.133-0.509,1.133-1.135v-63.524C523.336-463.491,522.83-463.998,522.203-463.998z"/>
	<path fill="#FFFFFF" d="M515.744-496.017c0.318-0.134,0.574-0.391,0.705-0.712c0.131-0.322,0.129-0.682-0.006-1.003
		c-0.387-0.922-0.797-1.828-1.213-2.695c-0.312-0.652-1.094-0.927-1.748-0.613l-8.658,4.162c-0.312,0.151-0.553,0.421-0.668,0.748
		c-0.115,0.328-0.096,0.689,0.055,1.002c0.334,0.691,0.656,1.409,0.959,2.13c0.135,0.321,0.393,0.576,0.713,0.706
		c0.158,0.066,0.326,0.098,0.496,0.098c0.172,0,0.344-0.034,0.506-0.103L515.744-496.017z"/>
	<path fill="#FFFFFF" d="M512.443-502.988c0.621-0.368,0.828-1.171,0.459-1.793c-0.5-0.847-1.033-1.696-1.59-2.525
		c-0.4-0.603-1.217-0.764-1.816-0.361l-7.986,5.338c-0.289,0.193-0.49,0.491-0.559,0.833c-0.066,0.341,0.004,0.695,0.195,0.983
		c0.426,0.636,0.842,1.295,1.234,1.957c0.174,0.3,0.463,0.516,0.801,0.603c0.107,0.027,0.217,0.041,0.326,0.041
		c0.232,0,0.463-0.062,0.666-0.183L512.443-502.988z"/>
	<path fill="#FFFFFF" d="M508.637-510.363c0.035-0.345-0.068-0.691-0.289-0.962c-0.639-0.783-1.301-1.547-1.963-2.271
		c-0.492-0.533-1.32-0.568-1.854-0.08l-7.078,6.495c-0.256,0.234-0.408,0.561-0.424,0.908c-0.014,0.347,0.109,0.687,0.344,0.941
		c0.508,0.554,1.012,1.138,1.498,1.734c0.26,0.318,0.637,0.481,1.018,0.481c0.291,0,0.584-0.094,0.826-0.294l7.447-6.071
		C508.43-509.7,508.602-510.017,508.637-510.363z"/>
	<path fill="#FFFFFF" d="M502.791-517.132c-0.77-0.683-1.561-1.338-2.354-1.953c-0.572-0.443-1.396-0.339-1.838,0.235l-5.881,7.597
		c-0.443,0.571-0.338,1.393,0.232,1.836c0.582,0.451,1.162,0.933,1.727,1.431c0.25,0.222,0.559,0.33,0.867,0.33
		c0.361,0,0.723-0.148,0.98-0.441l6.375-7.186C503.381-515.824,503.33-516.651,502.791-517.132z"/>
	<path fill="#FFFFFF" d="M510.678-473.166c0.029,0,0.059,0,0.09-0.002l9.584-0.657c0.348-0.023,0.67-0.185,0.898-0.446
		s0.344-0.604,0.318-0.951c-0.064-0.969-0.146-1.918-0.244-2.852c-0.076-0.718-0.721-1.243-1.439-1.167l-9.555,0.994
		c-0.719,0.075-1.242,0.72-1.168,1.438c0.082,0.792,0.152,1.599,0.207,2.423c0.025,0.347,0.186,0.67,0.447,0.898
		C510.057-473.279,510.361-473.166,510.678-473.166z"/>
	<path fill="#FFFFFF" d="M508.854-486.145l9.25-2.591c0.336-0.094,0.619-0.317,0.789-0.621c0.172-0.302,0.213-0.66,0.119-0.994
		c-0.264-0.941-0.551-1.884-0.854-2.801c-0.229-0.688-0.969-1.059-1.656-0.833l-9.121,3.016c-0.686,0.226-1.059,0.966-0.834,1.653
		c0.248,0.747,0.48,1.508,0.691,2.264c0.094,0.334,0.316,0.618,0.619,0.789c0.197,0.111,0.42,0.167,0.643,0.167
		C508.619-486.097,508.736-486.113,508.854-486.145z"/>
	<path fill="#FFFFFF" d="M510.131-479.733l9.479-1.576c0.342-0.058,0.65-0.248,0.852-0.531c0.201-0.282,0.283-0.635,0.225-0.977
		c-0.162-0.97-0.336-1.916-0.529-2.841c-0.146-0.708-0.842-1.162-1.549-1.016l-9.408,1.95c-0.705,0.146-1.162,0.839-1.016,1.549
		c0.16,0.768,0.307,1.556,0.441,2.361c0.057,0.343,0.246,0.649,0.529,0.854c0.225,0.16,0.49,0.244,0.762,0.244
		C509.988-479.716,510.061-479.723,510.131-479.733z"/>
	<path fill="#FFFFFF" d="M521.777-467.965c0-0.397-0.004-2.096-0.012-2.486c-0.01-0.718-0.594-1.291-1.309-1.291
		c-0.006,0-0.012,0-0.018,0l-9.605,0.131c-0.725,0.012-1.301,0.604-1.293,1.327c0.006,0.405,0.01,2.121,0.01,2.534
		c0,0.724,0.586,1.311,1.309,1.311h9.607c0.008,0,0.014,0,0.018,0c0.725,0,1.311-0.587,1.311-1.311
		C521.795-467.823,521.789-467.895,521.777-467.965z"/>
	<path fill="#FFFFFF" d="M489.449-400.962c-0.006-0.428-1.537-3.855-8.068-3.855c-8.926,0-9.377,3.589-9.373,4.068
		c0.008,0.509,0.014,0.33,0.014,0.847c0,0.91-0.123,1.646,0.908,1.646c0,0,15.611,0.002,15.619,0.001
		c0.402,0,0.941-0.254,0.941-0.741C489.49-399.089,489.461-400.47,489.449-400.962z"/>
</g>
<g>
	<path fill="#FFFFFF" d="M-7.304-175.378c1.958,0.019,25.208,0.006,34.042,0.001c2.094-0.001,3.45-0.84,3.743-3.49
		c0.286-2.599,0.414-2.724,0.58-4.362c0.163-1.594-0.705-3.109-3.059-3.083c-4.037,0.039-30.894-0.149-35.936,0.107
		c-2.635,0.136-2.613,0.831-2.51,2.706c0.113,2.06,0.274,2.437,0.451,5.675C-9.949-177.027-9.729-175.401-7.304-175.378z"/>
	<path fill="#FFFFFF" d="M-5.462-167.441h31.04c0,0,3.053-0.026,3.334-3.137c0.278-3.108-2.838-2.746-2.838-2.746H-5.518
		c0,0-3.482-0.524-3.491,2.666C-9.016-167.466-5.462-167.441-5.462-167.441z"/>
	<path fill="#FFFFFF" d="M-4.565-160.224h28.908c0,0,2.844-0.025,3.106-3.137c0.258-3.109-2.642-2.747-2.642-2.747H-4.617
		c0,0-3.244-0.521-3.252,2.668C-7.877-160.249-4.565-160.224-4.565-160.224z"/>
	<path fill="#FFFFFF" d="M23.145-157.875c-1.487,0-19.119,0-26.386,0c-1.906,0-2.032,1.867-1.385,2.703
		c2.343,3.022,5.539,5.095,8.131,5.095c4.573,0,6.915,0,12.448,0c3.149,0,6.161-2.222,8.338-5.482
		C24.775-156.284,25.023-157.875,23.145-157.875z"/>
	<path fill="#FFFFFF" d="M57.604-248.599c-1.347-3.037-4.816-2.681-6.185-2.681h-82.248c-1.369,0-4.992-0.104-6.339,2.933
		c-1.114,2.514,0.113,4.953,0.667,5.595c1.097,1.418,18.84,33.386,21.541,36.947c2.101,2.769,2.483,5.17,2.522,5.454l0.636,9.155
		c0.051,1.46,1.249,2.616,2.708,2.616h38.775c1.46,0,2.658-1.156,2.708-2.616l0.637-9.143c0.05-0.359,0.449-2.734,2.523-5.467
		c2.701-3.562,20.444-35.529,21.541-36.947C57.646-243.394,58.718-246.086,57.604-248.599z M-4.729-201.701
		c-0.134,0.087-0.284,0.129-0.434,0.129c-0.267,0-0.528-0.135-0.688-0.383l-19.156-39.49c-0.172-0.27-0.188-0.618-0.038-0.903
		c0.149-0.283,0.418-0.453,0.746-0.449l1.47,0.08c0.291,0.007,0.555,0.175,0.698,0.438l17.687,39.41
		C-4.224-202.464-4.349-201.946-4.729-201.701z M2.937-201.613c-0.083,0.028-0.167,0.041-0.25,0.041
		c-0.337,0-0.652-0.218-0.776-0.567l-10.558-39.489c-0.094-0.265-0.058-0.562,0.097-0.796c0.154-0.234,0.408-0.373,0.679-0.373
		h1.455c0.375,0,0.703,0.264,0.798,0.646l9.105,39.489C3.6-202.216,3.357-201.753,2.937-201.613z M11.642-202.383
		c-0.028,0.452-0.386,0.806-0.82,0.811c-0.002,0-0.003,0-0.006,0c-0.432,0-0.791-0.347-0.825-0.8l-0.713-39.49
		c-0.018-0.24,0.061-0.478,0.218-0.656c0.157-0.179,0.377-0.279,0.608-0.279h1.798c0.228,0,0.446,0.099,0.603,0.274
		c0.156,0.175,0.237,0.412,0.223,0.651L11.642-202.383z M18.148-201.572c-0.084,0-0.169-0.013-0.253-0.042
		c-0.421-0.142-0.661-0.606-0.545-1.055l9.264-39.488c0.098-0.379,0.424-0.641,0.798-0.641h1.294c0.271,0,0.526,0.139,0.68,0.373
		c0.155,0.233,0.19,0.531,0.096,0.796L18.923-202.14C18.801-201.79,18.486-201.572,18.148-201.572z M45.93-241.445l-19.156,39.49
		c-0.159,0.248-0.42,0.383-0.687,0.383c-0.15,0-0.301-0.042-0.438-0.133c-0.379-0.247-0.501-0.765-0.278-1.171l18.079-39.545
		c0.151-0.272,0.42-0.437,0.733-0.432l1.077,0.055c0.302,0.007,0.578,0.186,0.718,0.468
		C46.117-242.047,46.099-241.707,45.93-241.445z"/>
	<path fill="#FFFFFF" d="M10.242-294.436c-26.584,0-48.212,14.68-48.212,32.725c0,2.266,0.349,4.542,1.038,6.765
		c0.325,1.05,1.689,1.802,3.27,1.802h5.203c2.303-0.016,3.545-0.84,3.545-2.651c0-1.817,0.539-3.73,3.118-3.758v-0.004
		c0.01,0,0.016,0.003,0.026,0.003s0.016-0.003,0.025-0.003v0.004c2.579,0.027,3.118,1.94,3.118,3.758
		c0,1.735,1.149,2.558,3.27,2.639c2.12-0.081,3.269-0.903,3.269-2.639c0-1.817,0.539-3.73,3.118-3.758v-0.004
		c0.01,0,0.016,0.003,0.026,0.003s0.016-0.003,0.025-0.003v0.004c2.579,0.027,3.118,1.94,3.118,3.758
		c0,1.735,1.149,2.558,3.269,2.639c2.12-0.081,3.269-0.903,3.269-2.639c0-1.817,0.539-3.73,3.118-3.758v-0.004
		c0.01,0,0.016,0.003,0.026,0.003c0.009,0,0.016-0.003,0.025-0.003v0.004c2.579,0.027,3.117,1.94,3.117,3.758
		c0,1.735,1.149,2.558,3.27,2.639c2.12-0.081,3.269-0.903,3.269-2.639c0-1.817,0.539-3.73,3.118-3.758v-0.004
		c0.01,0,0.016,0.003,0.025,0.003c0.01,0,0.016-0.003,0.026-0.003v0.004c2.579,0.027,3.117,1.94,3.117,3.758
		c0,1.735,1.149,2.558,3.27,2.639c2.12-0.081,3.269-0.903,3.269-2.639c0-1.817,0.539-3.73,3.118-3.758v-0.004
		c0.01,0,0.016,0.003,0.025,0.003s0.016-0.003,0.026-0.003v0.004c2.579,0.027,3.117,1.94,3.117,3.758
		c0,1.735,1.149,2.558,3.269,2.639c2.12-0.081,3.269-0.903,3.269-2.639c0-1.817,0.539-3.73,3.118-3.758v-0.004
		c0.009,0,0.016,0.003,0.025,0.003s0.016-0.003,0.026-0.003v0.004c2.579,0.027,3.117,1.94,3.117,3.758
		c0,1.812,1.243,2.636,3.545,2.651h5.106c1.58,0,2.945-0.752,3.27-1.802c0.688-2.223,1.038-4.499,1.038-6.765
		C58.454-279.756,36.826-294.436,10.242-294.436z"/>
</g>
<g>
	<path fill="#FFFFFF" d="M-108.03,151.833c-1.734,0-22.299,0-30.775,0c-2.224,0-2.371,2.176-1.615,3.15
		c2.733,3.525,6.461,5.943,9.486,5.943c5.33,0,8.064,0,14.516,0c3.676,0,7.186-2.588,9.726-6.393
		C-106.132,153.688-105.841,151.833-108.03,151.833z"/>
	<g>
		<path fill="#FFFFFF" d="M-143.546,130.204c2.287,0.021,29.404,0.008,39.707,0.002c2.438-0.002,4.021-0.982,4.363-4.072
			c0.334-3.029,0.48-3.177,0.68-5.086c0.188-1.861-0.823-3.629-3.57-3.6c-4.709,0.051-36.033-0.172-41.912,0.13
			c-3.074,0.159-3.049,0.967-2.928,3.151c0.135,2.406,0.321,2.845,0.529,6.619C-146.626,128.28-146.372,130.177-143.546,130.204z"/>
		<path fill="#FFFFFF" d="M-141.392,139.96h36.197c0,0,3.562-0.031,3.885-3.678c0.328-3.646-3.305-3.223-3.305-3.223h-36.846
			c0,0-4.059-0.613-4.07,3.129C-145.54,139.931-141.392,139.96-141.392,139.96z"/>
		<path fill="#FFFFFF" d="M-140.349,149.214h33.715c0,0,3.316-0.031,3.619-3.678s-3.08-3.225-3.08-3.225h-34.312
			c0,0-3.785-0.609-3.795,3.131C-144.212,149.187-140.349,149.214-140.349,149.214z"/>
		<g>
			<path fill="#FFFFFF" d="M-117.519,112.804c-0.037-1.445-0.087-3.191-0.139-5.066c-0.184-6.481-0.109-14.549-0.109-18.869
				c0-5.953,4.646-16.846,7.915-24.059c0.914-2.011,1.704-3.748,2.134-4.837c0.563-1.421,2.059-5.2,1.047-6.694
				c-0.599-0.875-2.351-1.358-4.939-1.358h-23.168c-2.104,0-3.623,0.559-4.275,1.568c-0.697,1.081-0.537,2.878,0.449,5.063
				c0.949,2.101,2.036,4.367,3.148,6.689c4.076,8.512,8.292,17.311,8.292,22.832c0,1.648-0.015,4.205-0.032,7.122
				c-0.032,5.354-0.08,13.374-0.025,17.729c0.016,1.078,0.687,2.47,2.029,2.47c1.842,0.007,3.703,0.012,5.52,0.019
				C-118.425,115.413-117.491,113.862-117.519,112.804z"/>
			<path fill="#FFFFFF" d="M-123.304,0C-150.198,0-172,21.802-172,48.696c0,10.391,3.255,20.021,8.8,27.93
				c1.369,1.949,7.842,9.718,8.074,10.827c4.893,23.175,8.012,27.918,16.287,27.918c0.727,0,1.98,0.002,3.946,0.002
				s2.788-1.741,2.774-3.04c-0.039-3.476-0.021-9.041,0.029-17.166c0.017-2.908,0.031-5.455,0.031-7.094
				c0-4.408-4.148-13.073-7.811-20.717c-1.13-2.355-2.231-4.658-3.195-6.793c-2.172-4.806-1.253-7.945-0.103-9.729
				c1.586-2.455,4.565-3.808,8.388-3.808h23.168c4.443,0,7.381,1.145,8.983,3.503c2.172,3.193,1.022,7.292-0.54,11.242
				c-0.478,1.203-1.249,2.903-2.229,5.06c-2.91,6.413-7.479,17.144-7.479,22.036c0,4.25-0.073,12.279,0.106,18.73
				c0.057,1.962,0.107,3.727,0.144,5.172c0.028,1.086,0.624,2.672,2.345,2.672c1.682,0.006,3.125,0.006,4.212,0.006
				c13.638,0,10.829-12.829,14.888-29.507c0.473-1.94,7.697-9.061,9.21-11.483c4.668-7.471,7.364-16.301,7.364-25.762
				C-74.606,21.802-96.409,0-123.304,0z"/>
		</g>
	</g>
</g>
<path fill="#FFFFFF" d="M63.97,151.833c-1.734,0-22.299,0-30.775,0c-2.224,0-2.371,2.176-1.615,3.15
	c2.733,3.525,6.461,5.943,9.486,5.943c5.33,0,8.064,0,14.516,0c3.676,0,7.186-2.588,9.726-6.393
	C65.868,153.688,66.159,151.833,63.97,151.833z"/>
<path fill="#FFFFFF" d="M28.454,130.204c2.287,0.021,29.404,0.008,39.707,0.002c2.438-0.002,4.021-0.982,4.363-4.072
	c0.334-3.029,0.48-3.177,0.68-5.086c0.188-1.861-0.823-3.629-3.57-3.6c-4.709,0.051-36.033-0.172-41.912,0.13
	c-3.074,0.159-3.049,0.967-2.928,3.151c0.135,2.406,0.321,2.845,0.529,6.619C25.374,128.28,25.628,130.177,28.454,130.204z"/>
<path fill="#FFFFFF" d="M30.608,139.96h36.197c0,0,3.562-0.031,3.885-3.678c0.328-3.646-3.305-3.223-3.305-3.223H30.54
	c0,0-4.059-0.613-4.07,3.129C26.46,139.931,30.608,139.96,30.608,139.96z"/>
<path fill="#FFFFFF" d="M31.651,149.214h33.715c0,0,3.316-0.031,3.619-3.678s-3.08-3.225-3.08-3.225H31.593
	c0,0-3.785-0.609-3.795,3.131C27.788,149.187,31.651,149.214,31.651,149.214z"/>
<path fill="#FFFFFF" d="M48.696,0C21.802,0,0,21.802,0,48.696c0,10.391,3.255,20.021,8.8,27.93
	c1.369,1.949,7.842,9.718,8.074,10.827c4.893,23.175,8.012,27.918,16.287,27.918c0.727,0,1.98,0.002,3.946,0.002
	s2.788-1.741,2.774-3.04c-0.039-3.476-0.001-76.376-0.001-78.498c0-2.735,1.053-6.808,4.875-6.808h9.703
	c4.443,0,4.916,3.763,4.916,6.503c0,3.862-0.036,77.795,0,79.24c0.028,1.086,0.624,2.672,2.345,2.672
	c1.682,0.006,3.125,0.006,4.212,0.006c13.638,0,10.829-12.829,14.888-29.507c0.473-1.94,7.697-9.061,9.21-11.483
	c4.668-7.471,7.364-16.301,7.364-25.762C97.394,21.802,75.591,0,48.696,0z"/>
<g>
	<path fill="#FFFFFF" d="M191.021,117.902c1.959,0.019,25.208,0.006,34.043,0.001c2.094-0.001,3.449-0.84,3.743-3.49
		c0.286-2.599,0.414-2.724,0.579-4.362c0.164-1.594-0.704-3.109-3.059-3.083c-4.037,0.039-30.894-0.149-35.936,0.107
		c-2.636,0.136-2.613,0.831-2.511,2.706c0.112,2.06,0.274,2.437,0.45,5.675C188.376,116.253,188.597,117.879,191.021,117.902z"/>
	<path fill="#FFFFFF" d="M192.862,125.839h31.041c0,0,3.053-0.026,3.334-3.137c0.277-3.108-2.839-2.746-2.839-2.746h-31.591
		c0,0-3.482-0.524-3.49,2.666C189.31,125.814,192.862,125.839,192.862,125.839z"/>
	<path fill="#FFFFFF" d="M193.76,133.057h28.907c0,0,2.844-0.025,3.106-3.137c0.259-3.109-2.642-2.747-2.642-2.747h-29.424
		c0,0-3.243-0.521-3.252,2.668C190.448,133.031,193.76,133.057,193.76,133.057z"/>
	<path fill="#FFFFFF" d="M221.47,135.405c-1.486,0-19.118,0-26.386,0c-1.905,0-2.032,1.867-1.385,2.703
		c2.343,3.022,5.539,5.095,8.131,5.095c4.573,0,6.915,0,12.448,0c3.148,0,6.16-2.222,8.338-5.482
		C223.101,136.996,223.349,135.405,221.47,135.405z"/>
	<path fill="#FFFFFF" d="M255.93,44.682c-1.347-3.037-4.815-2.681-6.185-2.681h-82.248c-1.369,0-4.992-0.104-6.339,2.933
		c-1.114,2.514,0.112,4.953,0.667,5.595c1.097,1.418,18.84,33.386,21.541,36.947c2.102,2.769,2.482,5.17,2.522,5.454l0.636,9.155
		c0.051,1.46,1.249,2.616,2.709,2.616h38.775c1.46,0,2.658-1.156,2.708-2.616l0.637-9.143c0.05-0.359,0.448-2.734,2.522-5.467
		c2.701-3.562,20.444-35.529,21.541-36.947C255.971,49.887,257.044,47.194,255.93,44.682z M193.597,91.579
		c-0.135,0.087-0.284,0.129-0.434,0.129c-0.268,0-0.529-0.135-0.688-0.383l-19.156-39.49c-0.173-0.27-0.188-0.618-0.039-0.903
		c0.149-0.283,0.418-0.453,0.746-0.449l1.471,0.08c0.29,0.007,0.555,0.175,0.697,0.438l17.688,39.41
		C194.102,90.816,193.976,91.334,193.597,91.579z M201.263,91.667c-0.084,0.028-0.168,0.041-0.251,0.041
		c-0.337,0-0.652-0.218-0.776-0.567l-10.558-39.489c-0.095-0.265-0.058-0.562,0.097-0.796c0.154-0.234,0.408-0.373,0.68-0.373h1.454
		c0.376,0,0.703,0.264,0.798,0.646l9.105,39.489C201.925,91.064,201.683,91.527,201.263,91.667z M209.968,90.897
		c-0.029,0.452-0.387,0.806-0.82,0.811c-0.003,0-0.004,0-0.006,0c-0.432,0-0.791-0.347-0.826-0.8l-0.713-39.49
		c-0.018-0.24,0.061-0.478,0.219-0.656c0.156-0.179,0.377-0.279,0.607-0.279h1.799c0.227,0,0.445,0.099,0.602,0.274
		c0.156,0.175,0.238,0.412,0.224,0.651L209.968,90.897z M216.474,91.708c-0.084,0-0.169-0.013-0.254-0.042
		c-0.42-0.142-0.66-0.606-0.545-1.055l9.264-39.488c0.098-0.379,0.424-0.641,0.799-0.641h1.293c0.271,0,0.526,0.139,0.681,0.373
		c0.155,0.233,0.19,0.531,0.097,0.796l-10.559,39.489C217.126,91.49,216.812,91.708,216.474,91.708z M244.255,51.835l-19.156,39.49
		c-0.158,0.248-0.42,0.383-0.688,0.383c-0.15,0-0.301-0.042-0.438-0.133c-0.379-0.247-0.502-0.765-0.277-1.171l18.078-39.545
		c0.151-0.272,0.42-0.437,0.732-0.432l1.078,0.055c0.302,0.007,0.578,0.186,0.718,0.468
		C244.442,51.233,244.424,51.573,244.255,51.835z"/>
	<path fill="#FFFFFF" d="M208.567-1.155c-26.584,0-48.213,14.68-48.213,32.725c0,2.266,0.35,4.542,1.038,6.765
		c0.325,1.05,1.689,1.802,3.27,1.802h5.203c2.303-0.016,3.545-0.84,3.545-2.651c0-1.817,0.538-3.73,3.118-3.758v-0.004
		c0.01,0,0.016,0.003,0.025,0.003s0.016-0.003,0.025-0.003v0.004c2.579,0.027,3.117,1.94,3.117,3.758c0,1.735,1.15,2.558,3.27,2.639
		c2.12-0.081,3.27-0.903,3.27-2.639c0-1.817,0.538-3.73,3.117-3.758v-0.004c0.01,0,0.016,0.003,0.025,0.003s0.016-0.003,0.025-0.003
		v0.004c2.58,0.027,3.118,1.94,3.118,3.758c0,1.735,1.149,2.558,3.269,2.639c2.121-0.081,3.27-0.903,3.27-2.639
		c0-1.817,0.539-3.73,3.117-3.758v-0.004c0.01,0,0.017,0.003,0.026,0.003c0.009,0,0.016-0.003,0.025-0.003v0.004
		c2.579,0.027,3.117,1.94,3.117,3.758c0,1.735,1.149,2.558,3.27,2.639c2.12-0.081,3.269-0.903,3.269-2.639
		c0-1.817,0.539-3.73,3.118-3.758v-0.004c0.01,0,0.017,0.003,0.025,0.003c0.01,0,0.017-0.003,0.026-0.003v0.004
		c2.578,0.027,3.117,1.94,3.117,3.758c0,1.735,1.148,2.558,3.27,2.639c2.119-0.081,3.268-0.903,3.268-2.639
		c0-1.817,0.539-3.73,3.119-3.758v-0.004c0.01,0,0.016,0.003,0.025,0.003s0.016-0.003,0.025-0.003v0.004
		c2.578,0.027,3.117,1.94,3.117,3.758c0,1.735,1.149,2.558,3.27,2.639c2.119-0.081,3.269-0.903,3.269-2.639
		c0-1.817,0.538-3.73,3.118-3.758v-0.004c0.01,0,0.016,0.003,0.025,0.003s0.016-0.003,0.025-0.003v0.004
		c2.579,0.027,3.117,1.94,3.117,3.758c0,1.812,1.243,2.636,3.546,2.651h5.106c1.58,0,2.945-0.752,3.27-1.802
		c0.688-2.223,1.037-4.499,1.037-6.765C256.778,13.524,235.151-1.155,208.567-1.155z"/>
</g>
<g>
	<g>
		<path fill="#FFFFFF" d="M487.807,72.521c-1.719-4.576-0.641-9.074,12.229-11.624c12.873-2.55,43.284-7.996,48.114-9.347
			c3.859-1.08,6.648-1.809,8.199-2.645c0.545-0.295,1.66-0.647,2.223,0.147c0.607,0.86,1.301,2.312,1.531,4.601
			c0.443,4.404-1.33,10.428-19.084,13.67c-17.752,3.244-36.938,6.345-41.598,7.271C494.762,75.521,488.841,75.282,487.807,72.521z"
			/>
		<path fill="#FFFFFF" d="M487.764,55.325c-2.965-3.866-2.178-10.59,10.692-13.138c12.872-2.55,45.563-8.866,50.444-10.024
			c3.543-0.84,5.617-1.598,7.053-2.541c0.547-0.356,1.863-0.779,2.406-0.013c0.775,1.091,1.723,2.956,1.744,5.563
			c0.051,6.182-1.33,10.424-19.084,13.667c-17.752,3.245-39.5,7.646-44.16,8.571C492.201,58.338,489.537,57.644,487.764,55.325z"/>
		<path fill="#FFFFFF" d="M488.209,33.935c-1.434-4.373-0.075-9.576,11.979-11.458c12.965-2.024,41.166-6.466,46.049-7.623
			c3.207-0.761,4.889-2.964,5.475-4.712c0.307-0.914,1.08-1.789,2.271-0.986c1.795,1.206,4.039,3.514,4.039,7.522
			c0,6.901,0.752,10.2-17.002,13.444c-17.752,3.243-39.145,6.152-43.803,7.081C492.559,38.129,489.116,36.708,488.209,33.935z"/>
		<path fill="#FFFFFF" d="M549.232,6.312c-0.723,5.924-10.344,6.018-15.088,6.621c-4.43,0.563-16.447,2.213-20.523,3.183
			c-1.521,0.361-11.117,1.703-12.026,1.954c-4.646,0.797-7.914-3.15-6.888-6.867c1.425-5.17,17.043-7.045,24.961-8.303
			c7.922-1.256,2.238-0.273,14.623-2.25C546.682-1.329,549.832,1.401,549.232,6.312z"/>
		<path fill="#FFFFFF" d="M533.227,77.285c-3.41,0.007-6.439-4.722,0.662-5.843c16.027-2.533,15.332-2.448,18.611-3.707
			c1.879-0.726,2.967-1.492,3.594-2.118c0.783-0.78,1.428-1.015,2.104-0.329c1.143,1.165,2.574,3.352,2.016,6.699
			c-0.885,5.33-7.061,5.311-14.607,5.316C526.707,77.304,543.221,77.27,533.227,77.285z"/>
		<path fill="#FFFFFF" d="M507.007,110.597c-8.307,0-20.349-1.113-20.504-24.266c-0.008-1.543-0.897-6.098,4.128-6.098
			c6.672,0,20.43-0.085,34.857,0.054c15.084,0.147,22.336,0.384,27.717,0.384c5.379-0.236,5.99,1.006,5.898,4.138
			c-0.227,7.765-2.893,25.868-16.578,25.868C536.592,110.677,515.983,110.597,507.007,110.597z"/>
		<path fill="#FFFFFF" d="M502.285,125.481c2.293,0.023,29.506,0.01,39.848,0.002c2.451-0.002,4.037-0.984,4.381-4.086
			c0.334-3.039,0.484-3.186,0.678-5.104c0.191-1.866-0.824-3.64-3.58-3.61c-4.725,0.049-36.161-0.172-42.062,0.128
			c-3.086,0.158-3.061,0.972-2.939,3.165c0.133,2.413,0.321,2.855,0.528,6.643C499.189,123.554,499.447,125.456,502.285,125.481z"/>
		<path fill="#FFFFFF" d="M504.441,134.772h36.332c0,0,3.574-0.029,3.902-3.67c0.326-3.641-3.322-3.217-3.322-3.217h-36.977
			c0,0-4.076-0.613-4.087,3.123C500.281,134.745,504.441,134.772,504.441,134.772z"/>
	</g>
	<path fill="#FFFFFF" d="M505.491,143.222h33.837c0,0,3.328-0.031,3.635-3.672c0.303-3.639-3.092-3.217-3.092-3.217h-34.44
		c0,0-3.796-0.611-3.808,3.125C501.614,143.19,505.491,143.222,505.491,143.222z"/>
	<path fill="#FFFFFF" d="M537.926,145.97c-1.74,0-22.378,0-30.885,0c-2.231,0-2.379,2.188-1.621,3.166
		c2.742,3.535,6.483,5.963,9.518,5.963c5.352,0,8.094,0,14.57,0c3.686,0,7.211-2.602,9.76-6.418
		C539.834,147.831,540.125,145.97,537.926,145.97z"/>
</g>
<path fill="#FFFFFF" d="M54.486,34.24c-0.016-1.078-0.687-2.47-2.029-2.47c-1.842-0.007-3.703,0.006-5.52-0.001
	c-1.248,0-2.182,1.533-2.154,2.592c0.014,0.521,0.013,76.695,0.023,77.563c0.016,1.078,0.687,2.47,2.029,2.47
	c1.842,0.007,3.703-0.006,5.52,0.001c1.248,0,2.182-1.533,2.154-2.592C54.496,111.282,54.497,35.108,54.486,34.24z"/>
</svg>
