<?xml version="1.0" encoding="utf-8"?>
<!-- Generator: Adobe Illustrator 15.0.2, SVG Export Plug-In . SVG Version: 6.00 Build 0)  -->
<!DOCTYPE svg PUBLIC "-//W3C//DTD SVG 1.1//EN" "http://www.w3.org/Graphics/SVG/1.1/DTD/svg11.dtd">
<svg version="1.1" id="Layer_1" xmlns="http://www.w3.org/2000/svg" xmlns:xlink="http://www.w3.org/1999/xlink" x="0px" y="0px"
	 width="50px" height="50px" viewBox="0 0 50 50" enable-background="new 0 0 50 50" xml:space="preserve">
<g>
	<path fill="#F1F1F1" d="M34.564,45.762L2.479,13.676c-0.469-0.47-1.232-0.47-1.701,0l-0.426,0.426
		c-0.469,0.471-0.469,1.232,0,1.703l32.965,32.966c0.235,0.235,0.694,0.425,1.027,0.425h4.112c0.667,0,1.205-0.539,1.203-1.204
		l0.002-0.6c0-0.665-0.538-1.204-1.205-1.204h-2.866C35.258,46.188,34.799,45.997,34.564,45.762z"/>
	<circle fill="#F1F1F1" cx="46.057" cy="14.861" r="3.943"/>
	<path fill="#F1F1F1" d="M23.599,10.02L7.337,2.522C6.886,2.314,6.689,1.779,6.897,1.327l0,0c0.207-0.451,0.742-0.648,1.193-0.44
		l0,0l16.261,7.497c0.452,0.208,0.648,0.743,0.44,1.193l0,0c-0.152,0.33-0.478,0.525-0.818,0.525l0,0
		C23.849,10.102,23.72,10.076,23.599,10.02L23.599,10.02z"/>
	<path fill="#F1F1F1" d="M35.79,8.759c-0.332-0.518-0.902-0.829-1.515-0.829h-6.57c-0.995,0-1.801,0.804-1.801,1.799
		c0,0.995,0.806,1.8,1.801,1.8l5.285-0.001c0.165,0,0.373,0.114,0.461,0.252l1.104,1.725c0.09,0.14,0.029,0.276-0.133,0.303
		l-7.203,1.25c-2.287,0.395-3.428,2.458-2.55,4.604c0.648,1.585,1.306,3.19,1.565,3.819c0.063,0.154-0.021,0.284-0.186,0.293
		l-6.033,0.292c-1.241,0.06-2.198,1.115-2.137,2.357c0.057,1.201,1.05,2.139,2.242,2.139c0.037,0,0.074-0.001,0.113-0.002
		l4.707-0.229l-1.455,1.873c-0.762,0.979-0.585,2.395,0.396,3.156c0.41,0.319,0.896,0.474,1.378,0.474c0.672,0,1.336-0.3,1.78-0.871
		l4.411-5.682c0.497-0.64,0.612-1.496,0.3-2.243l-1.105-2.66l7.011-1.215c0.163-0.028,0.295,0.083,0.295,0.248l-0.001,4.008
		c0,0.474,0.19,0.934,0.525,1.27l4.255,4.277c0.351,0.353,0.812,0.53,1.274,0.53c0.46,0,0.918-0.174,1.27-0.522
		c0.705-0.702,0.709-1.84,0.008-2.545c-0.001-0.001-2.731-2.746-3.521-3.54c-0.117-0.118-0.212-0.346-0.212-0.513l0.002-5.403
		c0-0.663-0.292-1.649-0.649-2.207C39.387,14.402,35.79,8.759,35.79,8.759z"/>
	<path fill="#F1F1F1" d="M32.84,41.71c-0.348-0.355-0.342-0.923,0.013-1.271l0,0l8.424-8.252c0.354-0.348,0.924-0.342,1.271,0.013
		l0,0c0.349,0.355,0.342,0.924-0.013,1.272l0,0l-8.422,8.252c-0.176,0.172-0.402,0.257-0.63,0.257l0,0
		C33.25,41.98,33.017,41.891,32.84,41.71L32.84,41.71z"/>
</g>
</svg>
