<?xml version="1.0" encoding="utf-8"?>
<!-- Generator: Adobe Illustrator 15.0.2, SVG Export Plug-In . SVG Version: 6.00 Build 0)  -->
<!DOCTYPE svg PUBLIC "-//W3C//DTD SVG 1.1//EN" "http://www.w3.org/Graphics/SVG/1.1/DTD/svg11.dtd">
<svg version="1.1" id="Layer_1" xmlns="http://www.w3.org/2000/svg" xmlns:xlink="http://www.w3.org/1999/xlink" x="0px" y="0px"
	 width="50px" height="50px" viewBox="0 0 50 50" enable-background="new 0 0 50 50" xml:space="preserve">
<g>
	<path fill="#F1F1F1" d="M16.952,14.084l1.186,10.9c0.049,0.454,0.018,1.187-0.069,1.637l-2.901,14.866
		c-0.224,1.144,0.523,2.255,1.669,2.478c0.137,0.026,0.274,0.039,0.407,0.039c0.988,0,1.873-0.699,2.07-1.708l2.642-13.544
		c0.044-0.225,0.114-0.225,0.158,0l2.622,13.488c0.197,1.011,1.081,1.71,2.07,1.71c0.135,0,0.272-0.013,0.408-0.039
		c1.146-0.224,1.892-1.332,1.671-2.479l-3.283-16.885l-0.514-4.669c0.329,0.421,0.834,0.675,1.37,0.675
		c0.568-0.003,1.097-0.281,1.421-0.734l5.181-7.359h14.962c0.687,0,1.244-0.557,1.244-1.243c0-0.687-0.558-1.242-1.244-1.242H20.256
		C18.231,9.976,16.729,12.037,16.952,14.084z M26.197,15.494l-2.201-3.034h4.828l-2.144,3.028
		C26.549,15.675,26.332,15.677,26.197,15.494z"/>
	<circle fill="#F1F1F1" cx="22.843" cy="5.67" r="3.792"/>
	<path fill="#F1F1F1" d="M44.69,45.232H1.154C0.518,45.232,0,45.748,0,46.387v0.578c0,0.637,0.518,1.154,1.154,1.154h44.731
		c0.319,0,0.76-0.184,0.985-0.407l2.791-2.793c0.45-0.449,0.45-1.181,0-1.631l-0.408-0.408c-0.451-0.451-1.182-0.451-1.633,0
		l-1.944,1.944C45.45,45.051,45.01,45.232,44.69,45.232z"/>
</g>
</svg>
