<?xml version="1.0" encoding="utf-8"?>
<!-- Generator: Adobe Illustrator 15.0.2, SVG Export Plug-In . SVG Version: 6.00 Build 0)  -->
<!DOCTYPE svg PUBLIC "-//W3C//DTD SVG 1.1//EN" "http://www.w3.org/Graphics/SVG/1.1/DTD/svg11.dtd">
<svg version="1.1" id="Layer_1" xmlns="http://www.w3.org/2000/svg" xmlns:xlink="http://www.w3.org/1999/xlink" x="0px" y="0px"
	 width="50px" height="50px" viewBox="0 0 50 50" enable-background="new 0 0 50 50" xml:space="preserve">
<g>
	<path fill="#F1F1F1" d="M30.77,10.577c-0.232,0.097-0.603,0.072-0.823-0.057l-13.33-7.792C15.697,2.19,14.512,2.5,13.973,3.42
		c-0.538,0.921-0.229,2.104,0.69,2.643l11.556,6.77c0.22,0.129,0.396,0.439,0.378,0.692c-0.24,3.214-2.705,5.805-5.86,6.235
		c-0.504,0.067-1.322-0.016-1.821-0.112l-5.581-1.071l-2.565-7.906c-0.4-1.233-1.722-1.908-2.955-1.508
		c-1.233,0.398-1.907,1.721-1.508,2.954l2.994,9.229c0.261,0.81,0.951,1.417,1.788,1.578l8.567,1.646
		c0.25,0.048,0.49,0.289,0.538,0.539l1.828,9.577l-1.967,8.232c-0.302,1.261,0.479,2.527,1.74,2.826
		c0.182,0.043,0.364,0.064,0.544,0.064c1.062,0,2.024-0.728,2.279-1.807l2.084-8.72c0.075-0.318,0.082-0.66,0.021-0.981
		l-1.298-6.801c-0.049-0.251,0.104-0.526,0.337-0.628c5.23-2.245,8.935-7.354,9.128-13.36c0.008-0.254,0.198-0.539,0.433-0.637
		l11.771-4.869c0.987-0.408,1.459-1.54,1.049-2.525c-0.408-0.985-1.537-1.453-2.524-1.046L30.77,10.577z"/>
	<circle fill="#F1F1F1" cx="30.389" cy="4.21" r="4.211"/>
	<path fill="#F1F1F1" d="M19.888,50c-0.685,0-1.244-0.561-1.244-1.244v-0.622c0-0.684,0.56-1.243,1.244-1.243h5.802
		c0.684,0,1.245,0.56,1.245,1.243v0.622c0,0.684-0.561,1.244-1.245,1.244H19.888z"/>
	<path fill="#F1F1F1" d="M3.233,8.834C2.558,8.938,1.919,8.47,1.816,7.793L1.723,7.179C1.619,6.502,2.088,5.864,2.764,5.762
		L8.5,4.883c0.674-0.104,1.312,0.365,1.417,1.041l0.093,0.615c0.103,0.676-0.366,1.313-1.041,1.417L3.233,8.834z"/>
</g>
</svg>
