<?xml version="1.0" encoding="utf-8"?>
<!-- Generator: Adobe Illustrator 15.0.2, SVG Export Plug-In . SVG Version: 6.00 Build 0)  -->
<!DOCTYPE svg PUBLIC "-//W3C//DTD SVG 1.1//EN" "http://www.w3.org/Graphics/SVG/1.1/DTD/svg11.dtd">
<svg version="1.1" id="Layer_1" xmlns="http://www.w3.org/2000/svg" xmlns:xlink="http://www.w3.org/1999/xlink" x="0px" y="0px"
	 width="50px" height="50px" viewBox="0 0 50 50" enable-background="new 0 0 50 50" xml:space="preserve">
<g>
	<path fill="#F1F1F1" d="M11.208,48.688c-0.649,0-1.181-0.531-1.181-1.181v-0.591c0-0.649,0.531-1.181,1.181-1.181h5.51
		c0.649,0,1.181,0.531,1.181,1.181v0.591c0,0.649-0.531,1.181-1.181,1.181H11.208z"/>
	<path fill="#F1F1F1" d="M23.704,48.688c-0.65,0-1.182-0.531-1.182-1.181v-0.591c0-0.649,0.531-1.181,1.182-1.181h5.51
		c0.648,0,1.181,0.531,1.181,1.181v0.591c0,0.649-0.532,1.181-1.181,1.181H23.704z"/>
	<path fill="#F1F1F1" d="M50,47.247c0,0.707-0.578,1.285-1.285,1.285h-5.352c-0.706,0-1.283-0.578-1.283-1.285v-0.855
		c0-0.707,0.577-1.284,1.283-1.284h5.352c0.707,0,1.285,0.577,1.285,1.284V47.247z"/>
	<path fill="#F1F1F1" d="M22.007,24.969L0.512,8.75C0.009,8.371-0.144,7.69,0.145,7.133l0,0l2.668-5.129
		C3.141,1.375,3.916,1.13,4.545,1.458l0,0C5.174,1.784,5.418,2.56,5.091,3.189l0,0L2.924,7.354L23.554,22.92
		c0.566,0.428,0.678,1.233,0.252,1.8l0,0c-0.253,0.334-0.638,0.51-1.027,0.51l0,0C22.509,25.23,22.238,25.145,22.007,24.969
		L22.007,24.969z"/>
	<path fill="#F1F1F1" d="M13.207,14.1c-0.983-0.136-1.893,0.551-2.026,1.536c-0.135,0.984,0.698,1.602,1.682,1.737l9.469,1.503
		c0.232,0.037,0.287,0.202,0.119,0.369l-5.786,5.718c-0.786,0.777-1.159,1.806-1.135,2.831c-0.005,0.17,0.002,0.344,0.039,0.52
		c0.31,1.497,1.136,5.485,1.406,6.79c0.048,0.231-0.021,0.578-0.155,0.771l-3.798,5.45c-0.684,0.994-0.433,2.354,0.561,3.036
		c0.378,0.26,0.81,0.384,1.235,0.384c0.696,0,1.378-0.33,1.802-0.947l4.568-6.568c0.335-0.489,0.458-1.101,0.338-1.681l-0.832-4.017
		c-0.048-0.231,0.04-0.275,0.195-0.096l3.603,4.117c0.155,0.178,0.248,0.512,0.208,0.744l-0.975,5.84
		c-0.205,1.188,0.589,2.318,1.777,2.524c0.127,0.021,0.253,0.032,0.377,0.032c1.043,0,1.964-0.748,2.148-1.81l1.228-7.288
		c0.111-0.652-0.072-1.313-0.509-1.811l-4.66-5.325l1.022-1.012l3.292,1.205c0.201,0.073,0.41,0.108,0.618,0.108
		c0.352,0,0.699-0.104,1.001-0.304c0.479-0.321,0.772-0.847,0.796-1.423c0,0,0.267-6.864,0.266-6.898
		c0.059-1.05-0.295-2.12-1.093-2.927c-0.589-0.597-1.326-0.951-2.094-1.081C27.859,16.122,13.207,14.1,13.207,14.1z"/>
	<circle fill="#F1F1F1" cx="34.188" cy="14.116" r="3.919"/>
</g>
</svg>
