<?xml version="1.0" encoding="utf-8"?>
<!-- Generator: Adobe Illustrator 15.0.2, SVG Export Plug-In . SVG Version: 6.00 Build 0)  -->
<!DOCTYPE svg PUBLIC "-//W3C//DTD SVG 1.1//EN" "http://www.w3.org/Graphics/SVG/1.1/DTD/svg11.dtd">
<svg version="1.1" id="Layer_1" xmlns="http://www.w3.org/2000/svg" xmlns:xlink="http://www.w3.org/1999/xlink" x="0px" y="0px"
	 width="50px" height="50px" viewBox="0 0 50 50" enable-background="new 0 0 50 50" xml:space="preserve">
<g>
	<path fill="#F1F1F1" d="M46.842,33.788c-0.07-0.115-0.183-0.196-0.316-0.23c-0.039-0.008-0.079-0.013-0.12-0.013
		c-0.236,0-0.44,0.16-0.498,0.392L43.7,43.084c-0.031,0.136-0.011,0.274,0.062,0.391c0.072,0.116,0.182,0.195,0.315,0.228
		c0.041,0.01,0.082,0.014,0.121,0.014c0.236,0,0.44-0.16,0.497-0.391l2.205-9.148C46.937,34.045,46.913,33.907,46.842,33.788z"/>
	<path fill="#F1F1F1" d="M30.111,33.68c-0.033-0.133-0.116-0.245-0.235-0.315l-5.264-3.148c-0.08-0.049-0.172-0.073-0.265-0.073
		c-0.179,0-0.347,0.095-0.438,0.248c-0.07,0.118-0.091,0.255-0.058,0.387c0.034,0.134,0.116,0.246,0.234,0.316l5.268,3.148
		c0.076,0.05,0.168,0.073,0.259,0.073c0.183,0,0.347-0.093,0.44-0.25C30.124,33.95,30.145,33.812,30.111,33.68z"/>
	<path fill="#F1F1F1" d="M48.008,31.088c-0.143-0.266-0.382-0.458-0.667-0.546l-9.035-2.727c-0.041-0.011-0.08-0.018-0.122-0.024
		c-0.037-0.006-0.072-0.01-0.141-0.013l-0.072,0.003c-0.038,0.001-0.077,0.003-0.107,0.009c-0.025,0.001-0.047,0.006-0.068,0.013
		l-0.061,0.013l-0.004,0.001c-0.027,0.008-0.058,0.015-0.074,0.023c-0.025,0.007-0.049,0.016-0.104,0.039
		c-0.035,0.016-0.068,0.035-0.099,0.052c-0.031,0.017-0.061,0.037-0.091,0.059c-0.03,0.025-0.065,0.049-0.131,0.104l-6.825,6.595
		c-0.447,0.433-0.46,1.149-0.026,1.594c0.211,0.221,0.506,0.349,0.81,0.349c0.293,0,0.569-0.114,0.784-0.32l2.659-2.569
		l-2.508,7.082l-3.278,3.171c-0.54,0.523-0.554,1.389-0.032,1.931c0.259,0.269,0.607,0.417,0.982,0.417
		c0.354,0,0.691-0.138,0.949-0.388c0.056-0.055,3.509-3.395,3.509-3.395c0.154-0.15,0.269-0.329,0.339-0.529l1.21-3.466
		c0.011-0.032,0.041-0.104,0.098-0.104c0.028,0,0.067,0.019,0.103,0.052l3.023,2.771l0.94,3.965c0.146,0.618,0.69,1.05,1.324,1.05
		c0.104,0,0.208-0.013,0.316-0.037c0.355-0.085,0.656-0.301,0.848-0.612c0.191-0.309,0.249-0.675,0.172-0.989
		c0-0.021,0-0.021-1.042-4.416c-0.065-0.27-0.206-0.509-0.405-0.689l-2.875-2.633c-0.04-0.037-0.063-0.127-0.046-0.177l2.119-5.886
		c0.009-0.025,0.036-0.039,0.068-0.039h0.009l6.229,1.882c0.105,0.032,0.216,0.05,0.33,0.05c0.492,0,0.937-0.331,1.079-0.803
		C48.182,31.658,48.149,31.355,48.008,31.088z"/>
	<path fill="#F1F1F1" d="M39.885,22.994c-1.235,0-2.24,1.005-2.24,2.238c0,1.236,1.005,2.241,2.24,2.241
		c1.233,0,2.238-1.005,2.238-2.241C42.123,23.999,41.118,22.994,39.885,22.994z"/>
	<path fill="#F1F1F1" d="M47.108,46.92H21.995c-0.345,0-0.628,0.283-0.628,0.631v0.312c0,0.349,0.283,0.63,0.628,0.63H47.76
		c0.174,0,0.412-0.1,0.536-0.223l1.521-1.521c0.245-0.245,0.245-0.644,0-0.89l-0.222-0.222c-0.245-0.245-0.645-0.245-0.89,0
		l-1.061,1.061C47.523,46.821,47.281,46.92,47.108,46.92z"/>
	<path fill="#F1F1F1" d="M25.316,1.507c-1.248,0-2.26,1.015-2.26,2.259c0,1.246,1.012,2.26,2.26,2.26
		c1.245,0,2.259-1.014,2.259-2.26C27.575,2.521,26.562,1.507,25.316,1.507z"/>
	<path fill="#F1F1F1" d="M23.413,5.867c-0.421-0.419-0.981-0.649-1.575-0.649h-8.6c-0.625,0-1.132,0.507-1.132,1.13
		c0,0.624,0.507,1.132,1.132,1.132h5.417l-3.2,3.2c-0.421,0.422-0.652,0.981-0.652,1.574c0,0.334,0.077,0.66,0.231,0.968
		c0.087,0.173,0.067,0.39-0.046,0.502l-5.695,5.691c-0.247,0.249-0.381,0.579-0.381,0.931c0,0.354,0.134,0.684,0.381,0.929
		c0.249,0.248,0.579,0.387,0.932,0.387c0.349,0,0.68-0.139,0.927-0.387L23.413,9.016C24.281,8.147,24.281,6.736,23.413,5.867z"/>
	<path fill="#F1F1F1" d="M23.092,17.142L0.385,26.711c-0.319,0.134-0.469,0.504-0.336,0.821l0.122,0.289
		c0.134,0.322,0.502,0.471,0.821,0.337L24.3,18.337c0.159-0.067,0.341-0.251,0.407-0.411l0.812-1.986
		c0.13-0.321-0.024-0.688-0.345-0.818l-0.29-0.119c-0.322-0.129-0.687,0.023-0.818,0.344l-0.568,1.385
		C23.435,16.891,23.253,17.076,23.092,17.142z"/>
	<path fill="#F1F1F1" d="M46.613,1.78c-0.286-0.284-0.751-0.284-1.035,0L0.309,47.049c-0.283,0.286-0.283,0.75,0,1.034
		c0.143,0.143,0.331,0.214,0.517,0.214c0.187,0,0.374-0.071,0.517-0.214l45.27-45.269C46.896,2.529,46.896,2.066,46.613,1.78z"/>
</g>
</svg>
