<?xml version="1.0" encoding="utf-8"?>
<!-- Generator: Adobe Illustrator 15.0.2, SVG Export Plug-In . SVG Version: 6.00 Build 0)  -->
<!DOCTYPE svg PUBLIC "-//W3C//DTD SVG 1.1//EN" "http://www.w3.org/Graphics/SVG/1.1/DTD/svg11.dtd">
<svg version="1.1" id="Layer_1" xmlns="http://www.w3.org/2000/svg" xmlns:xlink="http://www.w3.org/1999/xlink" x="0px" y="0px"
	 width="50px" height="50px" viewBox="0 0 50 50" enable-background="new 0 0 50 50" xml:space="preserve">
<g>
	<path fill="#F1F1F1" d="M50,4.285c0,2.271-1.844,4.117-4.118,4.117s-4.118-1.845-4.118-4.117c0-2.278,1.844-4.119,4.118-4.119
		S50,2.007,50,4.285z"/>
	<path fill="#F1F1F1" d="M42.175,8.382c-0.79-0.789-1.83-1.187-2.867-1.187H22.313c-1.042,0-1.888,0.848-1.888,1.892
		c0,1.042,0.846,1.888,1.888,1.888h11.543l-6.915,6.915c-0.791,0.792-1.186,1.829-1.186,2.864c0,0.605,0.142,1.203,0.417,1.755
		c0.219,0.445,0.199,1.043-0.154,1.395L14.77,35.152c-0.44,0.437-0.658,1.014-0.658,1.59s0.218,1.152,0.658,1.592
		c0.879,0.879,2.3,0.879,3.179,0l24.226-24.226C43.758,12.529,43.758,9.966,42.175,8.382z"/>
	<path fill="#F1F1F1" d="M43.864,28.774L0.76,46.879c-0.631,0.264-0.927,0.991-0.663,1.622l0.24,0.574
		c0.265,0.631,0.991,0.928,1.624,0.662l44.288-18.601c0.315-0.134,0.676-0.497,0.806-0.813l1.603-3.925
		c0.26-0.634-0.045-1.357-0.679-1.617l-0.574-0.234c-0.634-0.26-1.357,0.044-1.615,0.679l-1.118,2.733
		C44.541,28.278,44.182,28.643,43.864,28.774z"/>
</g>
</svg>
