<?xml version="1.0" encoding="utf-8"?>
<!-- Generator: Adobe Illustrator 15.0.2, SVG Export Plug-In . SVG Version: 6.00 Build 0)  -->
<!DOCTYPE svg PUBLIC "-//W3C//DTD SVG 1.1//EN" "http://www.w3.org/Graphics/SVG/1.1/DTD/svg11.dtd">
<svg version="1.1" id="Layer_1" xmlns="http://www.w3.org/2000/svg" xmlns:xlink="http://www.w3.org/1999/xlink" x="0px" y="0px"
	 width="50px" height="50px" viewBox="0 0 50 50" enable-background="new 0 0 50 50" xml:space="preserve">
<g>
	<path fill="#F1F1F1" d="M45.238,25.756c2.408-1.751,2.941-5.122,1.19-7.529c-1.054-1.451-2.698-2.223-4.364-2.221
		c-1.099,0-2.206,0.333-3.163,1.03L6.958,40.249c-2.408,1.75-2.943,5.121-1.194,7.528c1.056,1.451,2.7,2.221,4.366,2.223
		c1.098,0,2.207-0.334,3.163-1.03L45.238,25.756z"/>
	<path fill="#F1F1F1" d="M19.256,29.275l-1.247-2.225c-0.122-0.219-0.023-0.44,0.218-0.496c1.088-0.258,3.904-0.925,4.991-1.185
		c0.241-0.056,0.618-0.015,0.843,0.091l1.04,0.494l4.22-3.068l-4.429-2.099c-0.471-0.226-1.006-0.282-1.512-0.162l-2.482,0.592
		c-0.241,0.057-0.406-0.098-0.369-0.341l0.98-6.55c0.037-0.246,0.262-0.391,0.499-0.327l5.231,1.448
		c0.165,0.045,0.335,0.068,0.502,0.068c0.342,0,0.681-0.091,0.978-0.271l6.258-3.784c0.892-0.54,1.178-1.698,0.64-2.588
		c-0.539-0.893-1.698-1.179-2.591-0.641l-5.179,3.129c-0.211,0.128-0.577,0.179-0.817,0.114L19.106,9.28l-7.618-4.984
		c-0.564-0.367-1.273-0.412-1.876-0.107L3.584,7.201C2.651,7.667,2.273,8.799,2.739,9.732c0.466,0.931,1.599,1.312,2.533,0.845
		l4.655-2.33c0.222-0.112,0.571-0.091,0.777,0.045l2.514,1.645c0.208,0.136,0.346,0.447,0.31,0.689l-1.99,13.256
		c-0.065,0.488,0.007,1,0.266,1.463c0-0.004,1.803,3.21,2.932,5.232c0.121,0.217,0.217,0.593,0.213,0.841
		c-0.006,0.532-0.017,1.201-0.031,1.935l4.584-3.33C19.458,29.765,19.387,29.512,19.256,29.275z"/>
	<circle fill="#F1F1F1" cx="21.144" cy="4.108" r="4.111"/>
</g>
</svg>
