<?xml version="1.0" encoding="utf-8"?>
<!-- Generator: Adobe Illustrator 15.0.2, SVG Export Plug-In . SVG Version: 6.00 Build 0)  -->
<!DOCTYPE svg PUBLIC "-//W3C//DTD SVG 1.1//EN" "http://www.w3.org/Graphics/SVG/1.1/DTD/svg11.dtd">
<svg version="1.1" id="Layer_1" xmlns="http://www.w3.org/2000/svg" xmlns:xlink="http://www.w3.org/1999/xlink" x="0px" y="0px"
	 width="50px" height="50px" viewBox="0 0 50 50" enable-background="new 0 0 50 50" xml:space="preserve">
<g>
	<path fill="#F1F1F1" d="M16.123,43.676c-0.45-0.367-0.518-1.035-0.151-1.484l0.333-0.409c0.367-0.45,1.035-0.518,1.484-0.151
		l3.412,2.781c0.449,0.367,0.517,1.036,0.15,1.485l-0.334,0.409c-0.365,0.45-1.034,0.518-1.484,0.151L16.123,43.676z"/>
	<path fill="#F1F1F1" d="M17.945,29.639c0.332-0.476,0.995-0.592,1.47-0.258l0.432,0.303c0.476,0.334,0.591,0.996,0.258,1.471
		l-2.528,3.603c-0.333,0.475-0.996,0.59-1.47,0.256l-0.433-0.303c-0.475-0.333-0.591-0.994-0.258-1.47L17.945,29.639z"/>
	<path fill="#F1F1F1" d="M36.772,15.822c-0.354-0.819-1.304-1.199-2.121-0.847c-0.821,0.352-1.2,1.302-0.849,2.123l3.452,8.042
		c0.058,0.137-0.004,0.299-0.14,0.362c-0.979,0.456-4.665,2.17-6.468,3.009c-0.539,0.25-1.117,0.916-1.289,1.484l-1.258,4.156
		l-4.983-2.536c-0.928-0.471-2.062-0.102-2.535,0.826s-0.103,2.062,0.825,2.535l4.42,2.25l-4.976,2.179
		c-0.956,0.417-1.39,1.528-0.974,2.482c0.31,0.707,1.002,1.13,1.729,1.13c0.253,0,0.508-0.051,0.754-0.157
		c-0.001-0.002,7.35-3.217,7.35-3.217c0.512-0.224,0.895-0.659,1.054-1.195l0.777-2.643l8.335-3.867
		c0.135-0.062,0.293-0.003,0.351,0.135l1.648,3.842c0.059,0.137,0.106,0.367,0.106,0.517v4.534c0,0.893,0.723,1.616,1.615,1.616
		c0.894,0,1.617-0.724,1.616-1.616v-5.136c0-0.214-0.047-0.439-0.131-0.638L36.772,15.822z"/>
	<circle fill="#F1F1F1" cx="46.459" cy="25.697" r="3.541"/>
	<path fill="#F1F1F1" d="M25.495,29.157v-4.863c0-0.214-0.047-0.439-0.131-0.638L17.053,4.285C16.7,3.464,15.75,3.084,14.931,3.438
		c-0.82,0.351-1.199,1.302-0.849,2.122l3.452,8.043c0.059,0.138-0.003,0.299-0.139,0.362c-0.979,0.457-4.665,2.171-6.467,3.009
		c-0.54,0.251-1.117,0.916-1.29,1.486L8.38,22.615l-4.983-2.535c-0.929-0.472-2.063-0.103-2.536,0.825s-0.102,2.063,0.825,2.536
		l4.421,2.25l-4.976,2.177c-0.956,0.419-1.391,1.529-0.973,2.483c0.309,0.708,1.001,1.131,1.729,1.131
		c0.252,0,0.509-0.051,0.754-0.158c-0.001-0.002,7.351-3.218,7.351-3.218c0.513-0.223,0.895-0.657,1.053-1.194l0.778-2.641
		l8.334-3.869c0.135-0.063,0.293-0.002,0.351,0.136l1.649,3.84c0.059,0.138,0.106,0.369,0.106,0.517v2.709
		c0,0.149,0.108,0.323,0.244,0.388l2.741,1.319C25.385,29.377,25.495,29.309,25.495,29.157z"/>
	<circle fill="#F1F1F1" cx="26.739" cy="14.158" r="3.54"/>
</g>
</svg>
