<?xml version="1.0" encoding="utf-8"?>
<!-- Generator: Adobe Illustrator 15.0.2, SVG Export Plug-In . SVG Version: 6.00 Build 0)  -->
<!DOCTYPE svg PUBLIC "-//W3C//DTD SVG 1.1//EN" "http://www.w3.org/Graphics/SVG/1.1/DTD/svg11.dtd">
<svg version="1.1" id="Layer_1" xmlns="http://www.w3.org/2000/svg" xmlns:xlink="http://www.w3.org/1999/xlink" x="0px" y="0px"
	 width="50px" height="50px" viewBox="0 0 50 50" enable-background="new 0 0 50 50" xml:space="preserve">
<g>
	<path fill="#F1F1F1" d="M40.173,23.392l-0.089-0.038c-0.029-0.011-13.027-5.648-13.027-5.648c-0.823-0.359-1.784,0.022-2.141,0.846
		c-0.358,0.826,0.021,1.783,0.846,2.141l5.132,2.225c0.195,0.084,0.182,0.153-0.033,0.153h-3.586c-0.965,0-1.837,0.391-2.469,1.023
		L19.798,29.1l-6.827,0.004c-1.094,0-1.978,0.883-1.978,1.976s0.884,1.979,1.978,1.979l7.647-0.001c0.527,0,1.023-0.207,1.397-0.578
		l2.867-2.868c0.152-0.152,0.397-0.152,0.55,0l4.284,4.285v6.826c0,1.094,0.886,1.979,1.978,1.979s1.979-0.886,1.979-1.979
		l-0.002-7.646c0-0.527-0.204-1.025-0.579-1.398l-1.353-1.351c-0.151-0.15-0.101-0.275,0.113-0.275h6.857
		c1.927,0,3.49-1.563,3.49-3.49c0-1.278-0.695-2.386-1.723-2.991C40.384,23.501,40.283,23.441,40.173,23.392z"/>
	<circle fill="#F1F1F1" cx="46.451" cy="23" r="3.549"/>
	<path fill="#F1F1F1" d="M8.651,15.446c0.151-0.152,0.397-0.152,0.549,0l4.284,4.286v6.512c0,0.43,0.348,0.775,0.775,0.775h2.405
		c0.429,0,0.775-0.346,0.775-0.775l-0.001-7.33c0-0.529-0.206-1.027-0.58-1.4l-1.352-1.352c-0.152-0.152-0.101-0.273,0.113-0.273
		h6.857c1.928,0,3.491-1.565,3.491-3.492c0-1.28-0.696-2.386-1.723-2.993c-0.094-0.068-0.194-0.128-0.306-0.174l-0.089-0.04
		c-0.028-0.012-13.027-5.648-13.027-5.648C10,3.184,9.041,3.562,8.684,4.389c-0.359,0.824,0.021,1.782,0.845,2.14l5.131,2.223
		c0.196,0.087,0.182,0.155-0.032,0.155h-3.587c-0.964,0-1.835,0.391-2.467,1.022c0-0.001-5.009,5.007-5.009,5.007l-2.79,0.003
		C0.347,14.94,0,15.287,0,15.713v2.404c0,0.43,0.347,0.776,0.776,0.776l3.61-0.002c0.527,0,1.022-0.207,1.396-0.579L8.651,15.446z"
		/>
	<circle fill="#F1F1F1" cx="30.218" cy="8.836" r="3.549"/>
	<path fill="#F1F1F1" d="M29.888,46.593c-0.582,0-1.058-0.476-1.058-1.057v-0.529c0-0.582,0.476-1.058,1.058-1.058h4.936
		c0.582,0,1.058,0.476,1.058,1.058v0.529c0,0.581-0.476,1.057-1.058,1.057H29.888z"/>
	<path fill="#F1F1F1" d="M7.041,29.847c0-0.582,0.476-1.057,1.057-1.057h0.53c0.582,0,1.058,0.475,1.058,1.057v4.935
		c0,0.583-0.476,1.058-1.058,1.058h-0.53c-0.581,0-1.057-0.475-1.057-1.058V29.847z"/>
</g>
</svg>
