<?xml version="1.0" encoding="UTF-8" standalone="no"?>
<svg viewBox="0 0 436 254" version="1.1" xmlns="http://www.w3.org/2000/svg" xmlns:xlink="http://www.w3.org/1999/xlink" xmlns:sketch="http://www.bohemiancoding.com/sketch/ns">
    <!-- Generator: Sketch 3.3 (11970) - http://www.bohemiancoding.com/sketch -->
    <title>State Grid</title>
    <desc>Created with Sketch.</desc>
    <defs></defs>
    <g id="Page-1" stroke="none" stroke-width="1" fill="none" fill-rule="evenodd" sketch:type="MSPage">
        <g id="State-Grid" sketch:type="MSLayerGroup" transform="translate(1.000000, 2.000000)" stroke="#FFFFFF" stroke-width="2" fill="#CCCCCC">
            <path d="M35.5255888,0 L52.8460969,10 L52.8460969,30 L35.5255888,40 L18.2050808,30 L18.2050808,10 L35.5255888,0 Z" id="AK" sketch:type="MSShapeGroup"></path>
            <path d="M416.576766,0 L433.897275,10 L433.897275,30 L416.576766,40 L399.256258,30 L399.256258,10 L416.576766,0 Z" id="ME" sketch:type="MSShapeGroup"></path>
            <path d="M364.615242,30 L381.93575,40 L381.93575,60 L364.615242,70 L347.294734,60 L347.294734,40 L364.615242,30 Z" id="VT" sketch:type="MSShapeGroup"></path>
            <path d="M399.256258,30 L416.576766,40 L416.576766,60 L399.256258,70 L381.93575,60 L381.93575,40 L399.256258,30 Z" id="NH" sketch:type="MSShapeGroup"></path>
            <path d="M70.166605,60 L87.4871131,70 L87.4871131,90 L70.166605,100 L52.8460969,90 L52.8460969,70 L70.166605,60 Z" id="WA" sketch:type="MSShapeGroup"></path>
            <path d="M104.807621,60 L122.128129,70 L122.128129,90 L104.807621,100 L87.4871131,90 L87.4871131,70 L104.807621,60 Z" id="MT" sketch:type="MSShapeGroup"></path>
            <path d="M139.448637,60 L156.769145,70 L156.769145,90 L139.448637,100 L122.128129,90 L122.128129,70 L139.448637,60 Z" id="ND" sketch:type="MSShapeGroup"></path>
            <path d="M174.089653,60 L191.410162,70 L191.410162,90 L174.089653,100 L156.769145,90 L156.769145,70 L174.089653,60 Z" id="MN" sketch:type="MSShapeGroup"></path>
            <path d="M208.73067,60 L226.051178,70 L226.051178,90 L208.73067,100 L191.410162,90 L191.410162,70 L208.73067,60 Z" id="WI" sketch:type="MSShapeGroup"></path>
            <path d="M278.012702,60 L295.33321,70 L295.33321,90 L278.012702,100 L260.692194,90 L260.692194,70 L278.012702,60 Z" id="MI" sketch:type="MSShapeGroup"></path>
            <path d="M347.294734,60 L364.615242,70 L364.615242,90 L347.294734,100 L329.974226,90 L329.974226,70 L347.294734,60 Z" id="NY" sketch:type="MSShapeGroup"></path>
            <path d="M381.93575,60 L399.256258,70 L399.256258,90 L381.93575,100 L364.615242,90 L364.615242,70 L381.93575,60 Z" id="MA" sketch:type="MSShapeGroup"></path>
            <path d="M416.576766,60 L433.897275,70 L433.897275,90 L416.576766,100 L399.256258,90 L399.256258,70 L416.576766,60 Z" id="RI" sketch:type="MSShapeGroup"></path>
            <path d="M87.4871131,90 L104.807621,100 L104.807621,120 L87.4871131,130 L70.166605,120 L70.166605,100 L87.4871131,90 Z" id="ID" sketch:type="MSShapeGroup"></path>
            <path d="M122.128129,90 L139.448637,100 L139.448637,120 L122.128129,130 L104.807621,120 L104.807621,100 L122.128129,90 Z" id="WY" sketch:type="MSShapeGroup"></path>
            <path d="M156.769145,90 L174.089653,100 L174.089653,120 L156.769145,130 L139.448637,120 L139.448637,100 L156.769145,90 Z" id="SD" sketch:type="MSShapeGroup"></path>
            <path d="M191.410162,90 L208.73067,100 L208.73067,120 L191.410162,130 L174.089653,120 L174.089653,100 L191.410162,90 Z" id="IA" sketch:type="MSShapeGroup"></path>
            <path d="M226.051178,90 L243.371686,100 L243.371686,120 L226.051178,130 L208.73067,120 L208.73067,100 L226.051178,90 Z" id="IL" sketch:type="MSShapeGroup"></path>
            <path d="M260.692194,90 L278.012702,100 L278.012702,120 L260.692194,130 L243.371686,120 L243.371686,100 L260.692194,90 Z" id="IN" sketch:type="MSShapeGroup"></path>
            <path d="M295.33321,90 L312.653718,100 L312.653718,120 L295.33321,130 L278.012702,120 L278.012702,100 L295.33321,90 Z" id="OH" sketch:type="MSShapeGroup"></path>
            <path d="M329.974226,90 L347.294734,100 L347.294734,120 L329.974226,130 L312.653718,120 L312.653718,100 L329.974226,90 Z" id="PA" sketch:type="MSShapeGroup"></path>
            <path d="M364.615242,90 L381.93575,100 L381.93575,120 L364.615242,130 L347.294734,120 L347.294734,100 L364.615242,90 Z" id="NJ" sketch:type="MSShapeGroup"></path>
            <path d="M399.256258,90 L416.576766,100 L416.576766,120 L399.256258,130 L381.93575,120 L381.93575,100 L399.256258,90 Z" id="CT" sketch:type="MSShapeGroup"></path>
            <path d="M70.166605,120 L87.4871131,130 L87.4871131,150 L70.166605,160 L52.8460969,150 L52.8460969,130 L70.166605,120 Z" id="OR" sketch:type="MSShapeGroup"></path>
            <path d="M104.807621,120 L122.128129,130 L122.128129,150 L104.807621,160 L87.4871131,150 L87.4871131,130 L104.807621,120 Z" id="NV" sketch:type="MSShapeGroup"></path>
            <path d="M139.448637,120 L156.769145,130 L156.769145,150 L139.448637,160 L122.128129,150 L122.128129,130 L139.448637,120 Z" id="CO" sketch:type="MSShapeGroup"></path>
            <path d="M174.089653,120 L191.410162,130 L191.410162,150 L174.089653,160 L156.769145,150 L156.769145,130 L174.089653,120 Z" id="NE" sketch:type="MSShapeGroup"></path>
            <path d="M208.73067,120 L226.051178,130 L226.051178,150 L208.73067,160 L191.410162,150 L191.410162,130 L208.73067,120 Z" id="MO" sketch:type="MSShapeGroup"></path>
            <path d="M243.371686,120 L260.692194,130 L260.692194,150 L243.371686,160 L226.051178,150 L226.051178,130 L243.371686,120 Z" id="KY" sketch:type="MSShapeGroup"></path>
            <path d="M278.012702,120 L295.33321,130 L295.33321,150 L278.012702,160 L260.692194,150 L260.692194,130 L278.012702,120 Z" id="WV" sketch:type="MSShapeGroup"></path>
            <path d="M312.653718,120 L329.974226,130 L329.974226,150 L312.653718,160 L295.33321,150 L295.33321,130 L312.653718,120 Z" id="VA" sketch:type="MSShapeGroup"></path>
            <path d="M347.294734,120 L364.615242,130 L364.615242,150 L347.294734,160 L329.974226,150 L329.974226,130 L347.294734,120 Z" id="MD" sketch:type="MSShapeGroup"></path>
            <path d="M381.93575,120 L399.256258,130 L399.256258,150 L381.93575,160 L364.615242,150 L364.615242,130 L381.93575,120 Z" id="DE" sketch:type="MSShapeGroup"></path>
            <path d="M87.4871131,150 L104.807621,160 L104.807621,180 L87.4871131,190 L70.166605,180 L70.166605,160 L87.4871131,150 Z" id="CA" sketch:type="MSShapeGroup"></path>
            <path d="M122.128129,150 L139.448637,160 L139.448637,180 L122.128129,190 L104.807621,180 L104.807621,160 L122.128129,150 Z" id="UT" sketch:type="MSShapeGroup"></path>
            <path d="M156.769145,150 L174.089653,160 L174.089653,180 L156.769145,190 L139.448637,180 L139.448637,160 L156.769145,150 Z" id="NM" sketch:type="MSShapeGroup"></path>
            <path d="M191.410162,150 L208.73067,160 L208.73067,180 L191.410162,190 L174.089653,180 L174.089653,160 L191.410162,150 Z" id="KS" sketch:type="MSShapeGroup"></path>
            <path d="M226.051178,150 L243.371686,160 L243.371686,180 L226.051178,190 L208.73067,180 L208.73067,160 L226.051178,150 Z" id="AR" sketch:type="MSShapeGroup"></path>
            <path d="M260.692194,150 L278.012702,160 L278.012702,180 L260.692194,190 L243.371686,180 L243.371686,160 L260.692194,150 Z" id="TN" sketch:type="MSShapeGroup"></path>
            <path d="M295.33321,150 L312.653718,160 L312.653718,180 L295.33321,190 L278.012702,180 L278.012702,160 L295.33321,150 Z" id="NC" sketch:type="MSShapeGroup"></path>
            <path d="M329.974226,150 L347.294734,160 L347.294734,180 L329.974226,190 L312.653718,180 L312.653718,160 L329.974226,150 Z" id="SC" sketch:type="MSShapeGroup"></path>
            <path d="M364.615242,150 L381.93575,160 L381.93575,180 L364.615242,190 L347.294734,180 L347.294734,160 L364.615242,150 Z" id="DC" sketch:type="MSShapeGroup"></path>
            <path d="M139.448637,180 L156.769145,190 L156.769145,210 L139.448637,220 L122.128129,210 L122.128129,190 L139.448637,180 Z" id="AZ" sketch:type="MSShapeGroup"></path>
            <path d="M174.089653,180 L191.410162,190 L191.410162,210 L174.089653,220 L156.769145,210 L156.769145,190 L174.089653,180 Z" id="OK" sketch:type="MSShapeGroup"></path>
            <path d="M208.73067,180 L226.051178,190 L226.051178,210 L208.73067,220 L191.410162,210 L191.410162,190 L208.73067,180 Z" id="LA" sketch:type="MSShapeGroup"></path>
            <path d="M243.371686,180 L260.692194,190 L260.692194,210 L243.371686,220 L226.051178,210 L226.051178,190 L243.371686,180 Z" id="MS" sketch:type="MSShapeGroup"></path>
            <path d="M278.012702,180 L295.33321,190 L295.33321,210 L278.012702,220 L260.692194,210 L260.692194,190 L278.012702,180 Z" id="AL" sketch:type="MSShapeGroup"></path>
            <path d="M312.653718,180 L329.974226,190 L329.974226,210 L312.653718,220 L295.33321,210 L295.33321,190 L312.653718,180 Z" id="GA" sketch:type="MSShapeGroup"></path>
            <path d="M18.2050808,210 L35.5255888,220 L35.5255888,240 L18.2050808,250 L0.884572681,240 L0.884572681,220 L18.2050808,210 Z" id="HI" sketch:type="MSShapeGroup"></path>
            <path d="M191.410162,210 L208.73067,220 L208.73067,240 L191.410162,250 L174.089653,240 L174.089653,220 L191.410162,210 Z" id="TX" sketch:type="MSShapeGroup"></path>
            <path d="M295.33321,210 L312.653718,220 L312.653718,240 L295.33321,250 L278.012702,240 L278.012702,220 L295.33321,210 Z" id="FL" sketch:type="MSShapeGroup"></path>
        </g>
    </g>
</svg>